<?xml version="1.0" standalone="no"?><!DOCTYPE svg PUBLIC "-//W3C//DTD SVG 1.1//EN" "http://www.w3.org/Graphics/SVG/1.1/DTD/svg11.dtd"><svg t="1499396780347" class="icon" style="" viewBox="0 0 1024 1024" version="1.1" xmlns="http://www.w3.org/2000/svg" p-id="3557" xmlns:xlink="http://www.w3.org/1999/xlink" width="16" height="16"><defs><style type="text/css"></style></defs><path d="M740.542 106.537c47.016 0 91.377 18.47 124.914 52.007 33.537 33.537 52.007 77.9 52.007 124.914v457.084c0 47.016-18.47 91.377-52.007 124.914-33.537 33.537-77.9 52.007-124.914 52.007H283.458c-47.016 0-91.377-18.47-124.914-52.007s-52.007-77.9-52.007-124.914V283.458c0-47.016 18.47-91.377 52.007-124.914s77.9-52.007 124.914-52.007h457.084m0-41.955H283.458c-120.382 0-218.876 98.494-218.876 218.876v457.084c0 120.382 98.494 218.876 218.876 218.876h457.084c120.382 0 218.876-98.494 218.876-218.876V283.458c0-120.382-98.494-218.876-218.876-218.876z" p-id="3558"></path></svg>