<?xml version="1.0" standalone="no"?><!DOCTYPE svg PUBLIC "-//W3C//DTD SVG 1.1//EN" "http://www.w3.org/Graphics/SVG/1.1/DTD/svg11.dtd"><svg t="1502538321747" class="icon" style="" viewBox="0 0 1024 1024" version="1.1" xmlns="http://www.w3.org/2000/svg" p-id="3070" xmlns:xlink="http://www.w3.org/1999/xlink" width="16" height="16"><defs><style type="text/css"></style></defs><path d="M361.952612 457.463919l86.713944-86.708827 0 255.847016 0.161682 0c1.556449 28.300556 24.942065 50.79078 53.620221 50.79078 28.699646 0 52.080146-22.490224 53.625338-50.79078l0.147356 0 0-255.847016 86.73441 86.708827c20.99722 21.021779 55.034431 21.021779 76.048023 0 20.98187-20.992103 20.98187-55.044664 0-76.03472L540.059056 202.486714l-0.01535 0.01842c-0.644683-0.641613-1.38351-1.066285-2.070148-1.657756-2.01182-1.77032-4.03899-3.546779-6.245238-5.006014-0.838088-0.525979-1.739621-0.86981-2.582825-1.362021-2.189875-1.246387-4.400217-2.527566-6.695492-3.459798-1.100054-0.429789-2.273786-0.641613-3.390213-1.000793-2.137687-0.710175-4.285606-1.447978-6.465249-1.87265-1.487887-0.295735-2.996241-0.295735-4.520967-0.443092-1.885953-0.199545-3.735068-0.527003-5.627161-0.527003-1.87572 0-3.745301 0.327458-5.605671 0.527003-1.529843 0.146333-3.048429 0.146333-4.5312 0.443092-2.159176 0.411369-4.270257 1.163499-6.344498 1.854231-1.183965 0.361227-2.378164 0.573051-3.50994 1.019213-2.242064 0.901533-4.369517 2.14792-6.501064 3.37691-0.906649 0.49528-1.901303 0.871857-2.792603 1.462305-2.127454 1.414209-4.087085 3.101641-6.045693 4.843308-0.727571 0.638543-1.551332 1.115404-2.263553 1.805112l-0.010233-0.01842L285.909705 381.429199c-21.00336 20.990057-20.98187 55.042617 0 76.03472C306.923298 478.484675 340.960509 478.484675 361.952612 457.463919z" p-id="3071" fill="#ffffff"></path><path d="M787.398304 667.302065c0-37.923728-58.817594-37.923728-58.817594 0 0 24.486694 6.008854 57.738006-11.075243 77.640288-11.750625 13.700023-32.69054 11.075243-48.773843 11.075243-55.42738 0-110.849644 0-166.277024 0-55.422264 0-110.85476 0-166.277024 0-17.833157 0-33.853016 1.723248-48.773843-11.075243-18.189268-15.591093-11.075243-56.453756-11.075243-77.640288 0-37.923728-58.82271-37.923728-58.82271 0 0 33.979906-1.969864 64.742537 11.525498 96.642061 14.166651 33.528628 54.809303 50.89618 88.862887 50.89618 61.515029 0 123.040291 0 184.560436 0 61.515029 0 123.041314 0 184.561459 0 38.317701 0 68.89716-18.72855 88.862887-50.89618C792.814664 736.655619 787.398304 697.877431 787.398304 667.302065z" p-id="3072" fill="#ffffff"></path></svg>