<?xml version="1.0" standalone="no"?><!DOCTYPE svg PUBLIC "-//W3C//DTD SVG 1.1//EN" "http://www.w3.org/Graphics/SVG/1.1/DTD/svg11.dtd"><svg t="1502350592914" class="icon" style="" viewBox="0 0 1024 1024" version="1.1" xmlns="http://www.w3.org/2000/svg" p-id="10342" xmlns:xlink="http://www.w3.org/1999/xlink" width="16" height="16"><defs><style type="text/css"></style></defs><path d="M835.106133 583.099733a291.6352 291.6352 0 0 0-291.601066 291.566934c0 34.235733 6.280533 66.901333 17.1008 97.3824H19.490133A518.826667 518.826667 0 0 1 17.066667 923.4432c0-226.0992 154.4192-416.119467 363.588266-470.4256a243.063467 243.063467 0 1 1 244.8384 0 486.058667 486.058667 0 0 1 225.006934 130.8672c-5.2224-0.2048-10.205867-0.785067-15.394134-0.785067z m111.616 200.738134c24.132267 0 43.793067 19.694933 43.793067 43.793066s-19.6608 43.758933-43.758933 43.758934h-106.973867v106.939733a43.793067 43.793067 0 0 1-87.517867 0V871.424h-106.837333a43.793067 43.793067 0 0 1 0-87.552h106.837333v-106.939733a43.7248 43.7248 0 1 1 87.552 0v106.939733h106.939734z" p-id="10343" fill="#ffffff"></path></svg>