<?xml version="1.0" standalone="no"?><!DOCTYPE svg PUBLIC "-//W3C//DTD SVG 1.1//EN" "http://www.w3.org/Graphics/SVG/1.1/DTD/svg11.dtd"><svg t="1499396753023" class="icon" style="" viewBox="0 0 1024 1024" version="1.1" xmlns="http://www.w3.org/2000/svg" p-id="2345" xmlns:xlink="http://www.w3.org/1999/xlink" width="16" height="16"><defs><style type="text/css"></style></defs><path d="M921.6 0H102.4a102.4 102.4 0 0 0-102.4 102.4v819.2a102.4 102.4 0 0 0 102.4 102.4h819.2a102.4 102.4 0 0 0 102.4-102.4V102.4a102.4 102.4 0 0 0-102.4-102.4z m51.2 921.6a51.2 51.2 0 0 1-51.2 51.2H102.4a51.2 51.2 0 0 1-51.2-51.2V102.4a51.2 51.2 0 0 1 51.2-51.2h819.2a51.2 51.2 0 0 1 51.2 51.2v819.2zM753.3568 318.7712l-310.9376 305.0496L270.336 472.5248a38.4 38.4 0 1 0-54.3232 54.3232l199.5264 178.688a38.4 38.4 0 0 0 27.1872 11.264h0.2048a38.2464 38.2464 0 0 0 27.2384-11.5712l338.0736-332.8a38.4 38.4 0 1 0-54.8864-53.6576z" fill="#37cf90" p-id="2346"></path></svg>