<?xml version="1.0" standalone="no"?><!DOCTYPE svg PUBLIC "-//W3C//DTD SVG 1.1//EN" "http://www.w3.org/Graphics/SVG/1.1/DTD/svg11.dtd"><svg t="1502350351039" class="icon" style="" viewBox="0 0 1024 1024" version="1.1" xmlns="http://www.w3.org/2000/svg" p-id="7596" xmlns:xlink="http://www.w3.org/1999/xlink" width="16" height="16"><defs><style type="text/css"></style></defs><path d="M998.559006 976.298137 998.559006 976.298137c0 25.440994-22.26087 47.701863-47.701863 47.701863L47.701863 1024c-25.440994 0-47.701863-22.26087-47.701863-47.701863l0 0c0 0 0-174.906832 124.024845-241.689441 79.503106-41.341615 47.701863-6.360248 146.285714-47.701863 95.403727-41.341615 120.84472-57.242236 120.84472-57.242236l0-95.403727c0 0-34.981366-28.621118-47.701863-117.664596-22.26087 6.360248-31.801242-28.621118-31.801242-50.881988 0-22.26087-12.720497-85.863354 15.900621-79.503106C321.192547 244.869565 314.832298 203.52795 318.012422 181.267081 324.372671 108.124224 394.335404 31.801242 499.279503 25.440994 623.304348 31.801242 674.186335 108.124224 680.546584 181.267081 683.726708 203.52795 677.36646 241.689441 674.186335 286.21118c28.621118-6.360248 15.900621 60.42236 15.900621 79.503106 0 22.26087-9.540373 57.242236-31.801242 47.701863-12.720497 89.043478-47.701863 117.664596-47.701863 117.664596l0 95.403727c0 0 22.26087 12.720497 120.84472 54.062112 95.403727 41.341615 66.782609 9.540373 146.285714 50.881988C998.559006 801.391304 998.559006 976.298137 998.559006 976.298137L998.559006 976.298137 998.559006 976.298137 998.559006 976.298137zM998.559006 976.298137" p-id="7597" fill="#ffffff"></path></svg>