<?xml version="1.0" standalone="no"?><!DOCTYPE svg PUBLIC "-//W3C//DTD SVG 1.1//EN" "http://www.w3.org/Graphics/SVG/1.1/DTD/svg11.dtd"><svg t="1502350394460" class="icon" style="" viewBox="0 0 1024 1024" version="1.1" xmlns="http://www.w3.org/2000/svg" p-id="8870" xmlns:xlink="http://www.w3.org/1999/xlink" width="16" height="16"><defs><style type="text/css"></style></defs><path d="M16 0z m16 0z m16 0z m16 0z m16 0z m16 0z m16 0z m16 0z m16 0z m16 0z m16 0z m16 0z m16 0z m16 0z m16 0z m16 0z m16 0z m16 0z m16 0z m16 0z m16 0z m16 0z m16 0z m16 0z m16 0z m16 0z m16 0z m16 0z m16 0z m16 0z m16 0z m16 0z m16 0z m16 0z m16 0z m16 0z m16 0z m16 0z m16 0z m16 0z m16 0z m16 0z m16 0z m16 0z m16 0z m16 0z m16 0z m16 0z m16 0z m16 0z m16 0z m16 0z m16 0z m16 0z m16 0z m16 0z m16 0z m16 0z m16 0z m16 0z m16 0z m16 0z m16 0zM0 16z m0 16z m0 16z m0 16z m0 16z m0 16z m0 16z m0 16z m0 16z m0 16z m0 16z m0 16z m0 16z m0 16z m0 16z m0 16z m0 16z m0 16z m0 16z m0 16z m0 16z m0 16z m0 16z m0 16z m0 16z m0 16z m0 16z m0 16z m0 16z m0 16z m0 16z m0 16z m0 16z m0 16z m0 16z m0 16z m0 16z m0 16z m0 16z m0 16z m0 16z m0 16z m0 16z m0 16z m0 16z m0 16z m0 16z m0 16z m0 16z m0 16z m0 16z m0 16z m0 16z m0 16z m0 16z m0 16z m0 16z m0 16z m0 16z m0 16z m0 16z m0 16z m0 16z m448-100l110-150-110-32v182zM59 554l313 95 385-327-299 353 335 103 172-663z" p-id="8871" fill="#ffffff"></path></svg>