<?xml version="1.0" standalone="no"?><!DOCTYPE svg PUBLIC "-//W3C//DTD SVG 1.1//EN" "http://www.w3.org/Graphics/SVG/1.1/DTD/svg11.dtd"><svg t="1502093231389" class="icon" style="" viewBox="0 0 1024 1024" version="1.1" xmlns="http://www.w3.org/2000/svg" p-id="3680" xmlns:xlink="http://www.w3.org/1999/xlink" width="16" height="16"><defs><style type="text/css"></style></defs><path d="M870.4 128h-194.56V64c0-35.84-28.16-64-64-64h-194.56c-35.84 0-64 28.16-64 64V128H153.6C117.76 128 89.6 156.16 89.6 192V256c0 35.84 28.16 64 64 64h716.8c35.84 0 64-28.16 64-64V192C934.4 156.16 906.24 128 870.4 128zM609.28 128h-194.56V94.72c0-17.92 15.36-30.72 33.28-30.72h130.56c17.92 0 33.28 15.36 33.28 30.72V128h-2.56zM153.6 896c0 71.68 58.88 128 130.56 128h455.68c71.68 0 130.56-56.32 130.56-128V384H153.6v512z m488.96-417.28c0-17.92 15.36-30.72 33.28-30.72 17.92 0 33.28 15.36 33.28 30.72v384c0 17.92-15.36 30.72-33.28 30.72-17.92 0-33.28-15.36-33.28-30.72v-384z m-163.84 0c0-17.92 15.36-30.72 33.28-30.72 17.92 0 33.28 15.36 33.28 30.72v384c0 17.92-15.36 30.72-33.28 30.72-17.92 0-33.28-15.36-33.28-30.72v-384z m-161.28 0c0-17.92 15.36-30.72 33.28-30.72 17.92 0 33.28 15.36 33.28 30.72v384c0 17.92-15.36 30.72-33.28 30.72-17.92 0-33.28-15.36-33.28-30.72v-384z" p-id="3681" fill="#d81e06"></path></svg>